PathFileType	4	(X/Y/Z) abd_2kg_3.trc																										
DataRate	CameraRate	NumFrames	NumMarkers	Units	OrigDataRate	OrigDataStartFrame	OrigNumFrames																					
100	100	29	9	mm	100	821	938																					
Frame#	Time	gu			centelbow			EpL			centpxt8			centijc7			ij			ts			aa			ai		
		X1	Y1	Z1	X2	Y2	Z2	X3	Y3	Z3	X4	Y4	Z4	X5	Y5	Z5	X6	Y6	Z6	X7	Y7	Z7	X8	Y8	Z8	X9	Y9	Z9  
820	8.2	-93.643	-10.428	161.331	-112.887	-254.617	192.725	-111.208	-246.699	223.932	-46.816	-153.158	-8.669	-46.816	31.938	-8.669	0	0	0	-131.864	23.32	39.001	-127.589	24.554	158.186	-140.671	-89.654	45.702
821	8.21	-93.504	-10.519	161.394	-112.637	-254.709	192.851	-110.958	-246.783	224.056	-46.816	-153.158	-8.669	-46.816	31.938	-8.669	0	0	0	-131.756	23.146	39.047	-127.432	24.418	158.23	-140.527	-89.828	45.787
822	8.22	-93.565	-10.411	161.286	-112.534	-254.609	192.774	-110.847	-246.678	223.978	-46.816	-153.158	-8.669	-46.816	31.938	-8.669	0	0	0	-131.885	23.063	39.067	-127.494	24.355	158.247	-140.614	-89.914	45.829
823	8.23	-93.658	-10.167	161.081	-112.434	-254.378	192.585	-110.734	-246.446	223.788	-46.816	-153.158	-8.669	-46.816	31.938	-8.669	0	0	0	-132.061	23.092	39.031	-127.588	24.391	158.208	-140.736	-89.888	45.804
824	8.24	-93.618	-9.966	160.917	-112.241	-254.187	192.445	-110.532	-246.251	223.646	-46.816	-153.158	-8.669	-46.816	31.938	-8.669	0	0	0	-132.092	23.191	38.919	-127.542	24.5	158.093	-140.713	-89.793	45.706
825	8.25	-93.491	-9.869	160.851	-112.02	-254.092	192.414	-110.309	-246.152	223.614	-46.816	-153.158	-8.669	-46.816	31.938	-8.669	0	0	0	-132.055	23.329	38.818	-127.447	24.663	157.989	-140.63	-89.656	45.63
826	8.26	-93.404	-9.838	160.859	-111.875	-254.059	192.47	-110.163	-246.113	223.668	-46.816	-153.158	-8.669	-46.816	31.938	-8.669	0	0	0	-132.095	23.443	38.823	-127.445	24.813	157.992	-140.635	-89.543	45.671
827	8.27	-93.383	-9.873	160.901	-111.823	-254.087	192.584	-110.109	-246.132	223.78	-46.816	-153.158	-8.669	-46.816	31.938	-8.669	0	0	0	-132.187	23.421	38.924	-127.507	24.834	158.091	-140.711	-89.564	45.815
828	8.28	-93.365	-9.97	160.921	-111.789	-254.174	192.692	-110.07	-246.207	223.885	-46.816	-153.158	-8.669	-46.816	31.938	-8.669	0	0	0	-132.245	23.246	39.026	-127.538	24.704	158.192	-140.768	-89.735	45.961
829	8.29	-93.313	-10.028	160.876	-111.702	-254.223	192.73	-109.976	-246.247	223.92	-46.816	-153.158	-8.669	-46.816	31.938	-8.669	0	0	0	-132.216	23.07	39.022	-127.47	24.574	158.186	-140.731	-89.91	46.003
830	8.3	-93.235	-9.953	160.809	-111.543	-254.145	192.734	-109.809	-246.16	223.921	-46.816	-153.158	-8.669	-46.816	31.938	-8.669	0	0	0	-132.068	23.038	38.923	-127.259	24.589	158.084	-140.559	-89.941	45.953
831	8.31	-93.124	-9.805	160.786	-111.331	-253.997	192.779	-109.59	-246.002	223.963	-46.816	-153.158	-8.669	-46.816	31.938	-8.669	0	0	0	-131.857	23.126	38.851	-126.97	24.721	158.008	-140.324	-89.852	45.928
832	8.32	-92.981	-9.726	160.811	-111.111	-253.913	192.878	-109.362	-245.91	224.06	-46.816	-153.158	-8.669	-46.816	31.938	-8.669	0	0	0	-131.734	23.205	38.866	-126.771	24.834	158.019	-140.192	-89.771	45.979
833	8.33	-92.853	-9.732	160.841	-110.946	-253.911	192.986	-109.188	-245.898	224.165	-46.816	-153.158	-8.669	-46.816	31.938	-8.669	0	0	0	-131.783	23.182	38.949	-126.75	24.839	158.099	-140.245	-89.791	46.094
834	8.34	-92.776	-9.741	160.853	-110.855	-253.91	193.087	-109.089	-245.886	224.263	-46.816	-153.158	-8.669	-46.816	31.938	-8.669	0	0	0	-131.923	23.072	39.073	-126.828	24.764	158.22	-140.399	-89.898	46.257
835	8.35	-92.707	-9.741	160.877	-110.781	-253.895	193.229	-109.007	-245.857	224.4	-46.816	-153.158	-8.669	-46.816	31.938	-8.669	0	0	0	-131.983	22.962	39.175	-126.827	24.706	158.318	-140.474	-90.003	46.413
836	8.36	-92.61	-9.786	160.927	-110.671	-253.921	193.429	-108.887	-245.864	224.595	-46.816	-153.158	-8.669	-46.816	31.938	-8.669	0	0	0	-131.913	22.904	39.217	-126.687	24.716	158.357	-140.402	-90.056	46.525
837	8.37	-92.533	-9.87	160.97	-110.562	-253.988	193.617	-108.763	-245.914	224.778	-46.816	-153.158	-8.669	-46.816	31.938	-8.669	0	0	0	-131.871	22.87	39.23	-126.561	24.754	158.365	-140.336	-90.088	46.612
838	8.38	-92.508	-9.938	160.938	-110.487	-254.044	193.704	-108.669	-245.956	224.86	-46.816	-153.158	-8.669	-46.816	31.938	-8.669	0	0	0	-131.983	22.825	39.185	-126.576	24.772	158.315	-140.415	-90.131	46.632
839	8.39	-92.469	-9.979	160.825	-110.395	-254.073	193.707	-108.559	-245.971	224.858	-46.816	-153.158	-8.669	-46.816	31.938	-8.669	0	0	0	-132.154	22.756	39.046	-126.644	24.756	158.17	-140.559	-90.198	46.55
840	8.4	-92.391	-9.998	160.753	-110.268	-254.078	193.764	-108.424	-245.96	224.911	-46.816	-153.158	-8.669	-46.816	31.938	-8.669	0	0	0	-132.255	22.646	38.916	-126.648	24.706	158.034	-140.639	-90.305	46.483
841	8.41	-92.356	-9.939	160.791	-110.155	-254.009	193.924	-108.311	-245.875	225.067	-46.816	-153.158	-8.669	-46.816	31.938	-8.669	0	0	0	-132.267	22.511	38.888	-126.579	24.641	158.001	-140.628	-90.438	46.525
842	8.42	-92.337	-9.793	160.828	-110.009	-253.858	194.062	-108.166	-245.71	225.201	-46.816	-153.158	-8.669	-46.816	31.938	-8.669	0	0	0	-132.208	22.388	38.868	-126.449	24.59	157.976	-140.532	-90.559	46.578
843	8.43	-92.207	-9.67	160.797	-109.735	-253.732	194.129	-107.891	-245.572	225.265	-46.816	-153.158	-8.669	-46.816	31.938	-8.669	0	0	0	-132.143	22.307	38.75	-126.308	24.589	157.853	-140.41	-90.638	46.539
844	8.44	-92.005	-9.655	160.822	-109.41	-253.712	194.253	-107.565	-245.539	225.386	-46.816	-153.158	-8.669	-46.816	31.938	-8.669	0	0	0	-132.208	22.302	38.611	-126.28	24.67	157.708	-140.396	-90.643	46.484
845	8.45	-91.887	-9.712	160.991	-109.184	-253.765	194.511	-107.334	-245.58	225.64	-46.816	-153.158	-8.669	-46.816	31.938	-8.669	0	0	0	-132.422	22.36	38.593	-126.391	24.801	157.683	-140.528	-90.586	46.538
846	8.46	-91.845	-9.804	161.176	-109.03	-253.854	194.772	-107.167	-245.66	225.898	-46.816	-153.158	-8.669	-46.816	31.938	-8.669	0	0	0	-132.632	22.382	38.687	-126.5	24.872	157.771	-140.674	-90.565	46.683
847	8.47	-91.735	-9.95	161.208	-108.799	-253.995	194.896	-106.91	-245.791	226.017	-46.816	-153.158	-8.669	-46.816	31.938	-8.669	0	0	0	-132.712	22.281	38.782	-126.482	24.808	157.86	-140.706	-90.667	46.818
848	8.48	-91.498	-10.079	161.084	-108.395	-254.119	194.898	-106.475	-245.9	226.014	-46.816	-153.158	-8.669	-46.816	31.938	-8.669	0	0	0	-132.69	22.144	38.83	-126.357	24.715	157.902	-140.63	-90.805	46.912
